<svg width="42" height="42" viewBox="0 0 42 42" fill="none" xmlns="http://www.w3.org/2000/svg">
<path d="M9 15C10.6545 15 12 16.3455 12 18C12 19.6545 10.6545 21 9 21C7.3455 21 6 19.6545 6 18C6 16.3455 7.3455 15 9 15ZM9 13.5C6.5145 13.5 4.5 15.5145 4.5 18C4.5 20.4855 6.5145 22.5 9 22.5C11.4855 22.5 13.5 20.4855 13.5 18C13.5 15.5145 11.4855 13.5 9 13.5ZM18 7.5C19.6545 7.5 21 8.8455 21 10.5C21 12.1545 19.6545 13.5 18 13.5C16.3455 13.5 15 12.1545 15 10.5C15 8.8455 16.3455 7.5 18 7.5ZM18 6C15.5145 6 13.5 8.0145 13.5 10.5C13.5 12.9855 15.5145 15 18 15C20.4855 15 22.5 12.9855 22.5 10.5C22.5 8.0145 20.4855 6 18 6ZM30 10.5C31.6545 10.5 33 11.8455 33 13.5C33 15.1545 31.6545 16.5 30 16.5C28.3455 16.5 27 15.1545 27 13.5C27 11.8455 28.3455 10.5 30 10.5ZM30 9C27.516 9 25.5 11.0145 25.5 13.5C25.5 15.9855 27.516 18 30 18C32.484 18 34.5 15.9855 34.5 13.5C34.5 11.0145 32.484 9 30 9ZM33 22.5C34.6545 22.5 36 23.8455 36 25.5C36 27.1545 34.6545 28.5 33 28.5C31.3455 28.5 30 27.1545 30 25.5C30 23.8455 31.3455 22.5 33 22.5ZM33 21C30.516 21 28.5 23.016 28.5 25.5C28.5 27.984 30.516 30 33 30C35.484 30 37.5 27.984 37.5 25.5C37.5 23.016 35.484 21 33 21ZM21 1.5C31.752 1.5 40.5 10.248 40.5 21C40.5 30.7065 34.47 40.5 21 40.5C18.6135 40.5 18.0525 39.9885 17.937 39.8325C17.583 39.3495 18.042 37.8885 18.4095 36.7155C19.0365 34.719 19.749 32.457 18.4095 30.63C17.343 29.1765 15.306 28.5 12 28.5C1.8675 28.5 1.5075 20.415 1.5 19.5C1.5 9.7425 10.4295 1.5 21 1.5ZM21 0C9.402 0 0 9 0 19.5C0 19.5 0 30 12 30C25.5 30 9 42 21 42C34.5 42 42 32.598 42 21C42 9.402 32.598 0 21 0Z" fill="black"/>
</svg>
