<svg width="48" height="24" viewBox="0 0 48 24" fill="none" xmlns="http://www.w3.org/2000/svg">
<path d="M33.4168 19.7359H17.7185C17.3395 19.7359 17.0318 19.4282 17.0318 19.0492C17.0318 18.6702 17.3395 18.3625 17.7185 18.3625H33.4168C33.7958 18.3625 34.1035 18.6702 34.1035 19.0492C34.1035 19.4282 33.7958 19.7359 33.4168 19.7359Z" fill="black"/>
<path d="M13.9844 23.4713C11.5454 23.4713 9.561 21.4882 9.561 19.0478C9.561 16.6075 11.5441 14.6244 13.9844 14.6244C16.4221 14.6244 18.4065 16.6075 18.4065 19.0478C18.4065 21.4882 16.4221 23.4713 13.9844 23.4713ZM13.9844 15.9991C12.3021 15.9991 10.9343 17.3669 10.9343 19.0492C10.9343 20.7315 12.3021 22.0993 13.9844 22.0993C15.6654 22.0993 17.0332 20.7315 17.0332 19.0492C17.0332 17.3669 15.664 15.9991 13.9844 15.9991Z" fill="black"/>
<path d="M37.1536 23.4713C34.7146 23.4713 32.7302 21.4882 32.7302 19.0478C32.7302 16.6075 34.7132 14.6244 37.1536 14.6244C39.594 14.6244 41.577 16.6075 41.577 19.0478C41.577 21.4882 39.5926 23.4713 37.1536 23.4713ZM37.1536 15.9991C35.4713 15.9991 34.1035 17.3669 34.1035 19.0492C34.1035 20.7315 35.4713 22.0993 37.1536 22.0993C38.8359 22.0993 40.2037 20.7315 40.2037 19.0492C40.2037 17.3669 38.8345 15.9991 37.1536 15.9991Z" fill="black"/>
<path d="M33.4223 19.7359H17.7212C17.3422 19.7359 17.0345 19.4282 17.0345 19.0492C17.0345 18.6702 17.3422 18.3625 17.7212 18.3625H33.4223C33.8013 18.3625 34.1089 18.6702 34.1089 19.0492C34.1089 19.4282 33.8013 19.7359 33.4223 19.7359Z" fill="black"/>
<path d="M44.1864 19.7359H40.8863C40.5073 19.7359 40.1997 19.4282 40.1997 19.0492C40.1997 18.6702 40.5073 18.3625 40.8863 18.3625H44.1864C45.0365 18.3625 45.7492 17.7528 45.8797 16.9123L46.6117 12.2252C46.6625 11.897 46.5815 11.5701 46.3796 11.3051C46.1791 11.0414 45.8893 10.8739 45.5583 10.8327L36.4107 9.71755C36.2789 9.70107 36.1539 9.64751 36.0523 9.56236L27.7836 2.61203C27.2384 2.15335 26.5448 1.90066 25.8307 1.90066H12.8955C12.2569 1.90066 11.6705 2.22201 11.3258 2.76035L7.45993 8.80979C7.37341 8.94849 7.23745 9.05012 7.0809 9.09681L2.41164 10.5045C1.71811 10.7132 1.2814 11.4095 1.39264 12.1263L2.04633 16.3136C2.23173 17.4987 3.237 18.3598 4.43727 18.3598H10.245C10.624 18.3598 10.9317 18.6674 10.9317 19.0465C10.9317 19.4255 10.624 19.7331 10.245 19.7331H4.43452C2.55309 19.7331 0.975151 18.3845 0.686755 16.5251L0.0330588 12.3378C-0.182551 10.948 0.667529 9.59532 2.012 9.1902L6.43956 7.85534L10.1695 2.01876C10.7669 1.08628 11.7859 0.528717 12.8955 0.528717H25.8335C26.869 0.528717 27.8756 0.895391 28.668 1.56145L36.7801 8.37994L45.7259 9.47035C46.429 9.55687 47.0498 9.91256 47.4755 10.477C47.9026 11.04 48.077 11.7363 47.9685 12.4367L47.2365 17.1238C47.0017 18.6372 45.7177 19.7359 44.1864 19.7359Z" fill="black"/>
<path d="M29.0593 10.2531H13.3101C12.9311 10.2531 12.6235 9.94551 12.6235 9.56648C12.6235 9.18744 12.9311 8.87982 13.3101 8.87982H29.0593C29.4383 8.87982 29.7459 9.18744 29.7459 9.56648C29.7459 9.94551 29.4383 10.2531 29.0593 10.2531Z" fill="black"/>
</svg>
