<svg width="48" height="48" viewBox="0 0 48 48" fill="none" xmlns="http://www.w3.org/2000/svg">
<g clip-path="url(#clip0_26_24)">
<path d="M24.75 12.7505C18.5468 12.7505 13.5 17.7972 13.5 24.0004C13.5 30.2035 18.5468 35.2502 24.75 35.2502C30.9532 35.2502 36 30.2035 36 24.0004C36 17.7972 30.9532 12.7505 24.75 12.7505ZM24.75 33.7502C19.374 33.7502 15 29.3763 15 24.0004C15 18.6245 19.374 14.2505 24.75 14.2505C30.126 14.2505 34.5 18.6245 34.5 24.0004C34.5 29.3763 30.126 33.7502 24.75 33.7502Z" fill="black"/>
<path d="M24.75 7.50064C15.6518 7.50064 8.25 14.9023 8.25 24.0004C8.25 33.0985 15.6518 40.5001 24.75 40.5001C33.8482 40.5001 41.25 33.0985 41.25 24.0004C41.25 14.9023 33.8482 7.50064 24.75 7.50064ZM24.75 39.0002C16.479 39.0002 9.75 32.2713 9.75 24.0004C9.75 15.7295 16.479 9.00062 24.75 9.00062C33.021 9.00062 39.75 15.7295 39.75 24.0004C39.75 32.2713 33.021 39.0002 24.75 39.0002Z" fill="black"/>
<path d="M47.25 0.000762939C46.0238 0.000762939 44.9685 0.915749 44.796 2.12923L42.0083 21.6439C41.9753 21.8772 42.0533 22.1127 42.219 22.2792L43.5 23.5654V45.7493C43.5 46.9898 44.5095 47.9993 45.75 47.9993C46.9905 47.9993 48 46.9898 48 45.7493V0.750001C48 0.336008 47.664 0.000762939 47.25 0.000762939ZM46.5 45.75C46.5 46.1633 46.1633 46.5 45.75 46.5C45.3368 46.5 45 46.1633 45 45.75V23.2556C45 23.0569 44.9213 22.8672 44.781 22.7262L43.545 21.4849L46.2795 2.34073C46.3065 2.15548 46.3845 1.98748 46.4993 1.85173L46.5 45.75Z" fill="black"/>
<path d="M10.5 11.0728V0.750744C10.5 0.375 10.221 0.056255 9.84825 0.00750573C9.474 -0.0434935 9.12375 0.192003 9.0255 0.555747L7.24725 7.16239L5.9865 0.608996C5.919 0.255752 5.60925 0.000755839 5.25 0.000755839C4.89075 0.000755839 4.581 0.255752 4.5135 0.608996L3.25275 7.16239L1.47375 0.554997C1.3755 0.191253 1.023 -0.0434935 0.65175 0.00675575C0.279 0.056255 0 0.37425 0 0.750744V11.0736C0 12.3943 0.7335 13.5808 1.91475 14.1718C2.58375 14.5055 3 15.179 3 15.9275V45.6698C3 46.8068 3.807 47.7953 4.87725 47.9693C5.00025 47.9895 5.124 47.9993 5.24625 47.9993C5.7795 47.9993 6.29775 47.8125 6.70725 47.4638C7.21125 47.0355 7.5 46.4108 7.5 45.75V15.9275C7.5 15.179 7.91625 14.5055 8.58525 14.171C9.7665 13.58 10.5 12.3936 10.5 11.0728ZM7.91475 12.8293C6.7335 13.4203 6 14.6068 6 15.9275V45.75C6 45.9705 5.904 46.179 5.73525 46.3215C5.56425 46.4663 5.34525 46.5248 5.118 46.4895C4.7715 46.4325 4.5 46.0725 4.5 45.6698V15.9275C4.5 14.6068 3.7665 13.4203 2.58525 12.8293C1.91625 12.4948 1.5 11.8213 1.5 11.0728V6.42141L2.6505 10.6956C2.74125 11.0331 3.04575 11.2536 3.402 11.2506C3.75075 11.2378 4.04475 10.9858 4.11075 10.6423L5.25 4.72193L6.3885 10.6423C6.4545 10.9858 6.7485 11.2371 7.09725 11.2506C7.44525 11.2558 7.758 11.0331 7.84875 10.6956L9 6.42141V11.0736C9 11.8213 8.58375 12.4948 7.91475 12.8293Z" fill="black"/>
<path d="M24.75 27.7503H23.25V29.2503H24.75V27.7503Z" fill="black"/>
<path d="M27.75 27.7503H26.25V29.2503H27.75V27.7503Z" fill="black"/>
<path d="M30.75 27.7503H29.25V29.2503H30.75V27.7503Z" fill="black"/>
</g>
<defs>
<clipPath id="clip0_26_24">
<rect width="48" height="48" fill="white"/>
</clipPath>
</defs>
</svg>
