<svg width="40" height="34" viewBox="0 0 40 34" fill="none" xmlns="http://www.w3.org/2000/svg">
<path d="M35 33.5H5C3.80653 33.5 2.66193 33.0259 1.81802 32.182C0.974106 31.3381 0.5 30.1935 0.5 29V5C0.5 3.80653 0.974106 2.66193 1.81802 1.81802C2.66193 0.974106 3.80653 0.5 5 0.5H35C36.1935 0.5 37.3381 0.974106 38.182 1.81802C39.0259 2.66193 39.5 3.80653 39.5 5V29C39.5 30.1935 39.0259 31.3381 38.182 32.182C37.3381 33.0259 36.1935 33.5 35 33.5ZM5 3.5C4.60218 3.5 4.22064 3.65804 3.93934 3.93934C3.65804 4.22064 3.5 4.60218 3.5 5V29C3.5 29.3978 3.65804 29.7794 3.93934 30.0607C4.22064 30.342 4.60218 30.5 5 30.5H35C35.3978 30.5 35.7794 30.342 36.0607 30.0607C36.342 29.7794 36.5 29.3978 36.5 29V5C36.5 4.60218 36.342 4.22064 36.0607 3.93934C35.7794 3.65804 35.3978 3.5 35 3.5H5Z" fill="black"/>
<path d="M27.5 15.5C26.61 15.5 25.74 15.2361 24.9999 14.7416C24.2599 14.2471 23.6831 13.5443 23.3425 12.7221C23.0019 11.8998 22.9128 10.995 23.0865 10.1221C23.2601 9.24918 23.6887 8.44736 24.318 7.81802C24.9474 7.18869 25.7492 6.7601 26.6221 6.58647C27.495 6.41283 28.3998 6.50195 29.2221 6.84254C30.0443 7.18314 30.7472 7.75992 31.2416 8.49994C31.7361 9.23996 32 10.11 32 11C32 12.1935 31.5259 13.3381 30.682 14.182C29.8381 15.0259 28.6935 15.5 27.5 15.5ZM27.5 9.5C27.2033 9.5 26.9133 9.58798 26.6666 9.7528C26.42 9.91762 26.2277 10.1519 26.1142 10.426C26.0007 10.7001 25.9709 11.0017 26.0288 11.2926C26.0867 11.5836 26.2296 11.8509 26.4393 12.0607C26.6491 12.2704 26.9164 12.4133 27.2074 12.4712C27.4983 12.5291 27.7999 12.4994 28.074 12.3858C28.3481 12.2723 28.5824 12.08 28.7472 11.8334C28.912 11.5867 29 11.2967 29 11C29 10.6022 28.842 10.2206 28.5607 9.93934C28.2794 9.65804 27.8978 9.5 27.5 9.5Z" fill="black"/>
<path d="M35 33.5C34.7529 33.4987 34.51 33.4364 34.2928 33.3187C34.0756 33.2009 33.8909 33.0313 33.755 32.825L27.245 23.075C27.1078 22.8708 26.9225 22.7035 26.7054 22.5878C26.4882 22.4721 26.246 22.4116 26 22.4116C25.754 22.4116 25.5118 22.4721 25.2947 22.5878C25.0775 22.7035 24.8922 22.8708 24.755 23.075L24.245 23.825C24.0106 24.1161 23.6759 24.3091 23.3066 24.3663C22.9372 24.4236 22.5598 24.3409 22.2483 24.1344C21.9367 23.928 21.7135 23.6127 21.6222 23.2502C21.531 22.8878 21.5783 22.5043 21.755 22.175L22.25 21.41C22.6605 20.7912 23.2177 20.2835 23.8721 19.9324C24.5264 19.5812 25.2574 19.3975 26 19.3975C26.7426 19.3975 27.4736 19.5812 28.128 19.9324C28.7823 20.2835 29.3395 20.7912 29.75 21.41L36.245 31.175C36.4621 31.5057 36.5398 31.9088 36.4611 32.2964C36.3825 32.6841 36.1538 33.0251 35.825 33.245C35.5834 33.4142 35.2949 33.5034 35 33.5Z" fill="black"/>
<path d="M5 33.5C4.71259 33.4992 4.43143 33.4159 4.19 33.26C3.85627 33.0448 3.6215 32.706 3.53714 32.318C3.45279 31.93 3.52574 31.5243 3.74 31.19L13.085 16.76C13.4906 16.1333 14.0457 15.6173 14.7003 15.2586C15.3549 14.8999 16.0885 14.7096 16.835 14.705C17.5774 14.7047 18.3083 14.8881 18.9626 15.2388C19.6169 15.5895 20.1742 16.0966 20.585 16.715L30.215 31.175C30.3917 31.5043 30.439 31.8878 30.3478 32.2502C30.2565 32.6126 30.0333 32.928 29.7217 33.1344C29.4102 33.3409 29.0328 33.4236 28.6635 33.3663C28.2941 33.3091 27.9595 33.116 27.725 32.825L18.08 18.38C17.9441 18.1736 17.7594 18.0041 17.5422 17.8863C17.325 17.7685 17.0821 17.7063 16.835 17.705C16.5866 17.7079 16.3428 17.7725 16.1254 17.8929C15.9081 18.0133 15.7241 18.1859 15.59 18.395L6.26 32.81C6.12447 33.0212 5.93811 33.1951 5.71798 33.3156C5.49784 33.4362 5.25098 33.4996 5 33.5Z" fill="black"/>
</svg>
