<svg width="42" height="37" viewBox="0 0 42 37" fill="none" xmlns="http://www.w3.org/2000/svg">
<path d="M13.7001 0.999996C16.0601 0.659996 18.5601 3.24 19.2801 6.8C20.0001 10.34 18.7001 13.5 16.3401 13.86C14.0001 14.22 11.4801 11.64 10.7401 8.08C10.0001 4.54 11.3401 1.38 13.7001 0.999996ZM28.0001 0.999996C30.3801 1.38 31.7001 4.54 31.0001 8.08C30.2401 11.64 27.7401 14.22 25.3801 13.86C23.0001 13.5 21.7001 10.34 22.4401 6.8C23.1601 3.24 25.6601 0.659996 28.0001 0.999996ZM3.00006 10.2C5.28006 9.22 8.3801 11 10.0001 14.1C11.5201 17.26 11.0001 20.58 8.7401 21.56C6.48006 22.54 3.40006 20.78 1.82006 17.64C0.240057 14.5 0.800057 11.16 3.00006 10.2ZM39.0001 10.2C41.2001 11.16 41.7601 14.5 40.1801 17.64C38.6001 20.78 35.5201 22.54 33.2601 21.56C31.0001 20.58 30.4801 17.26 32.0001 14.1C33.6201 11 36.7201 9.22 39.0001 10.2ZM35.6601 31.76C35.7401 33.64 34.3001 35.72 32.5801 36.5C29.0001 38.14 24.7601 34.74 20.7801 34.74C16.8001 34.74 12.5201 38.28 9.0001 36.5C7.0001 35.52 5.62006 32.92 5.88006 30.76C6.24006 27.78 9.8201 26.18 11.9401 24C14.7601 21.18 16.7601 15.88 20.7801 15.88C24.7801 15.88 26.9001 21.1 29.6001 24C31.8201 26.44 35.5201 28.5 35.6601 31.76Z" fill="black"/>
</svg>
