<svg width="108" height="108" viewBox="0 0 108 108" fill="none" xmlns="http://www.w3.org/2000/svg">
<path d="M68.0001 79.6C57.4001 79.6 47.4001 75.5 39.9001 68C32.4001 60.5 28.3001 50.5 28.3001 39.9C28.3001 29.3 32.4001 19.3 39.9001 11.8C47.4001 4.3 57.4001 0.200001 68.0001 0.200001C78.6001 0.200001 88.6001 4.3 96.1001 11.8C111.6 27.3 111.6 52.5 96.1001 68C88.6001 75.5 78.6001 79.6 68.0001 79.6ZM68.0001 11.8C60.5001 11.8 53.4001 14.7 48.1001 20C37.1001 31 37.1001 48.8 48.1001 59.8C53.4001 65.1 60.5001 68 68.0001 68C75.5001 68 82.6001 65.1 87.9001 59.8C93.2001 54.5 96.1001 47.4 96.1001 39.9C96.1001 32.4 93.2001 25.3 87.9001 20C82.6001 14.7 75.5001 11.8 68.0001 11.8ZM0.600098 96.4L30.4001 66.6C31.9001 68.7 33.6001 70.7 35.4001 72.5C37.2001 74.3 39.2001 76 41.3001 77.5L11.5001 107.3L0.600098 96.4Z" fill="black"/>
</svg>
